<svg width="24" height="24" viewBox="0 0 24 24" fill="none" xmlns="http://www.w3.org/2000/svg">
<path d="M16.5 12C16.7761 12 17 12.2239 17 12.5C17 12.7761 16.7761 13 16.5 13H7.5C7.22386 13 7 12.7761 7 12.5C7 12.2239 7.22386 12 7.5 12L16.5 12Z" fill="#4F5058"/>
<path d="M17 9.5C17 9.22386 16.7761 9 16.5 9L7.5 9C7.22386 9 7 9.22386 7 9.5C7 9.77614 7.22386 10 7.5 10L16.5 10C16.7761 10 17 9.77614 17 9.5Z" fill="#4F5058"/>
<path fill-rule="evenodd" clip-rule="evenodd" d="M15 4.5C15 4.22386 15.2239 4 15.5 4C15.7761 4 16 4.22386 16 4.5V5H17C18.6569 5 20 6.34315 20 8V17C20 18.6569 18.6569 20 17 20H7C5.34315 20 4 18.6569 4 17V8C4 6.34315 5.34315 5 7 5H8V4.5C8 4.22386 8.22386 4 8.5 4C8.77614 4 9 4.22386 9 4.5V5H15V4.5ZM8 6V6.5C8 6.77614 8.22386 7 8.5 7C8.77614 7 9 6.77614 9 6.5V6H15V6.5C15 6.77614 15.2239 7 15.5 7C15.7761 7 16 6.77614 16 6.5V6H17C18.1046 6 19 6.89543 19 8V17C19 18.1046 18.1046 19 17 19H7C5.89543 19 5 18.1046 5 17V8C5 6.89543 5.89543 6 7 6H8Z" fill="#4F5058"/>
</svg>
